<?xml version="1.0" encoding="UTF-8" standalone="no"?>
<svg
   id="Layer_1"
   data-name="Layer 1"
   version="1.1"
   viewBox="0 0 423.29 457.68"
   sodipodi:docname="carte-france.svg"
   inkscape:version="1.3 (0e150ed6c4, 2023-07-21)"
   xmlns:inkscape="http://www.inkscape.org/namespaces/inkscape"
   xmlns:sodipodi="http://sodipodi.sourceforge.net/DTD/sodipodi-0.dtd"
   xmlns="http://www.w3.org/2000/svg"
   xmlns:svg="http://www.w3.org/2000/svg">
  <sodipodi:namedview
     id="namedview1"
     pagecolor="#505050"
     bordercolor="#ffffff"
     borderopacity="1"
     inkscape:showpageshadow="0"
     inkscape:pageopacity="0"
     inkscape:pagecheckerboard="1"
     inkscape:deskcolor="#505050"
     inkscape:zoom="1.6976927"
     inkscape:cx="211.46347"
     inkscape:cy="228.84"
     inkscape:window-width="1920"
     inkscape:window-height="991"
     inkscape:window-x="-9"
     inkscape:window-y="-9"
     inkscape:window-maximized="1"
     inkscape:current-layer="Layer_1" />
  <defs
     id="defs1">
    <style
       id="style1">&#10;      .cls-1,.cls-2{fill:#003839;stroke:#fff;stroke-miterlimit:10}.cls-2{fill:#ef5e2c}.cls-15,.cls-5{fill:#fff;font-family:Montserrat-Bold,Montserrat;font-weight:700}.cls-5{font-size:15.8px}.cls-13{letter-spacing:0}.cls-15{font-size:23.39px}&#10;    </style>
  </defs>
  <path
     id="path386"
     d="m70.1 111.28-1.74 1.32-3.85.47-.78 1.06-2.62-1.93-3.89 2.56 1.4 1.85-2.09 2.82-2.73-1.56-5 .16v3.3h-.9l-.32-1.53-2 .31-.35-4.11-2.09 2.26-1.9-.79-3.91.37-.67 1.66-1.8.43-.32-1.8-4.31.56v1.13l-2.33.18-1.23-.84-1.61.79-.32 1.9-4.42.16-2.6 3.08 2 1.45-2.6 2.09.91 1.58-.73 3.79 3.05.37.91-.87.4.55 6.51-.84 1.31-.9-1.12 1.06.42 2.08 3.14-1.37-.62 2.08 3.75.19-.08.45-3.75-.14-3.13-.79L24 134l-2.66 3 3.19 1.06-.19 4.8 1.28-1 1.77-2.67 3.3 1.87 1.6.35.62 2.37-.91 1.58-2-.13h-2.07l-3.32.5-5.81.27-1.4 1.82 2 1.16 1.83-.15 1.49 1.32 2.15-.16 3.4 3.82.8 4.12-1.28 2.53 3.88.74 4-.19 1-1.74-1-1.34.64.29 1.53-.16 2.68 1.48 2-.37v-.82l.16.68 2.25 3.64 5.06.35.11-.61.85 1.21 3 .53h2l2 3.08 2.94.72.24-.32-.16.5 2.49 1.08 3 2.88.94 1.71-.69 4.38 2.29 1.76 1.31-1.48-1.09-1.46v-2.53l1.93.44.53-1.58.24.56 2.47 2.11 1.26-2-.16-.31.56.76h.13l-1.6 2 2.24.74 1.56 2.35 9.16-.82 1.79.4-.86.71.19 1.74.48.37.91-.16 1.37-1.32.88 1h2.81l3.27-1.66 4.85-1.87.16-4.64 1.07-.58 3.11-1.61 10.49-.53.7-1.93 1.58-1.53 3.8-.5.16-1.76 2.15.29 1.47 2 3.67.87.75-1.53.85-3 2.12-5.2 1-.58 3 .37v-4.85l-1.18-1.16v-4.67l-.51-1.66v-2.51l1.69-1.66v-3.51l-.83-.66.16-4.67-1.47-.71h-2l-1.82-1.42-1.9 2.24-1.45.17-1.28 1.74-1.13-.27-2.75-2.37-1-3.06-.56-2.27h-8.38l-2.7-1.63 2.12-2.83-4.64-.18-1.77 2-.88 1-3.29-.34-.35 1.84-1.53.13-.16-2.21-2-.61-.83 1v-3.14l-2.33 1.72-3.08-.5-1.07 2-6.24 3.35v1.56h-.83V127l-3.48-1.61.32-3-3.19-2.3v-2.87l-2.33-.51.16-2.66-1.8-.11.16-1.84h-3.8l-.38 1.13-.83-2ZM78.46 173l1.58.37 1.5 1.77-.64 1-1.9-.55-2.6-1.19 2.46-.37Z"
     class="cls-1"
     transform="translate(-16.43 -10.12)">
    <title
       id="title5">Bretagne</title>
  </path>
  <path
     id="polygon388"
     d="m166.67 131-1.93.19-.72 1.68-2.31.93-4.55-.66-4.47 2.61-1.69-1.18-2.52 1.66-1.63-1.23-1.2-2-2.71-1.11-1.71 1.35-3-.35-.16 4.7.83.66v3.06l-1.72 1.69v2.74l.51 1.69v4.83l1.18 1.16v4.06l-2.62-.31-1.34.76-2.22 5.38-.83 2.93-.27.55-.3.58h-.27l-2.81-.68-1.5-2-2.89-.37-.16 1.87-3.56.48-1.74 1.71-.67 1.74-10.2.51-4.61 2.4-.16 4.59-4.55 1.76-3.17 1.56h-2.46l-1.09-1.26-1.64 1.6-1.26.24 1.1.74-3.13 2.74.83.82.59 1.16-1.77 2.43 2.09 1.1 3.51.74.24-1.05 1.61 2h3.26l2.17-2.32h1.63L98.52 191l.16 1.82.61 1.4-1.63 1.64h-2.2l.43 3 3.8-.69 4.1 3.7-.05.08-.19.23-4.87 6.18-.16 4.14 5.16 4.93-.18 1.63h1.6l3.16 9.34 3.4 1.66 3.4 3.35h3.78l1.5 3.3h3.72l1.64 2.43 4.09 2L130 239l.67.63 5.25-3.11 2.09-.13 1 2.69 3.29-1.37 2.71 2 2.25-1.05 1.92-.53.86-1 2.57-1.64-2-2-1.18.87-.08-.82 1.2-2.21-1.18-2 1-1.27-.54-4.72-1.58-2.4 1.18-1.53-2.7-3 1-2.17-4.07-3.35v-2l-1.66-2.02.43-.18 2.73-1.16 5.22 1.18 2.52-1.66v-2.19l4.34-.31 4.12-.82 4.34-.16.46 1 1.47 1.27 1.28-2.19 3.11-3.22h1.37l1.92-6.88 2.71-3.17-.19-3.64 1.69-2.16v-1.14l-.78-.95.48-1 1-1.9 3.18 2.19h2.28l-.91-3 1.63 1.08 1.26-1.79 5-1.37-.89-2.11 1.05-1.32 2.51-1 2.41-3.08v-3h1.64l.72-2.53.16-3.59-1.58-1.45 1.21-2.09 2.14-2.69-2.55-1.76-2.16-.37-2.32-3.38h-1l-.06.51h-3.4l-1.66-2.46-2.78-1-.81-5.78-1.47-2-4.74.16-4.53 4.12-2.3-.13h-.24l-.83-2.93L169 136l-.64-3.56Z"
     class="cls-1"
     transform="translate(-16.43 -10.12)">
    <title
       id="title8">Pays de la Loire</title>
  </path>
  <path
     id="polygon392"
     d="m171.81 197.93-3.29 3.4-.38.66-.62 1.06-.91-.74-.53-1.27-4.74.19-4.15.81-4.77.35v2.4l-2.11 1.37-5.17-1.16-3.89 1.63 1.8 2.51v2l4 3.25-1 2.11 2.65 2.92-1.15 1.48 1.71 2.56.51 4.46-1 1.37 1.18 2-1.13 2.11.22 1.84 1.52-1.13 1.26 1.29-2.06 1.3-.83 1-1.82.5-2 .93-.45-.37-2.2-1.63-3.08 1.29-1-2.58-2.55.18-5.51 3.27 1.26 1.13-2.52 2-.36 1.58-2.2.27-1.31-1.45-3.27-.29-.35-1.59-2.19-1.45-3.27 1.16 2.11 3h2.39l2.27 1.42 1.93 1.53 3.43-.15.64 1.45 2.33.5.83 2.27 1.45.6-.14 1.37-1.9-.29-.85 1.24 1.52 2.19-.75 3.33-2.06-.16-.53-1.14-.81-.68-.35-4.06-2.94-.37-2.68-3.2-.4 6.57 3.85 2.82.33 3 .67 3.59.37 3.9 2.17-.21 3.45 2.8 2.23 1.24.18 1.71 2 .35 5.25 5.17 1.18 5.33.1.5 1.34 5.59.32 4.69-.46.72-.69-3.35-2.38-9.13-8.51-7.54.21-3.56-2.08-.21-2.82 4.14-.83 13.9-2.17 14-1.52 10.89-.16 2.82.51.08 1.15-3.74 2.14-2.75 3.08 2.77.35.93.72 1-3.53.16-.73-1.06-2 .79L125 320l-1.85 2.48v3.93l-3 15.7-3.86 14.5-1.18 5.62-1 3.93-2.36 4-.1.18-.16.24-.54.95-3.8 4.56-2.89 1.14-2.39.34v2.16l2.17 1.95 2.87.14.16 2.13 2.76.21.64-1.42 3 1.24 1.88.45.4 1.68-1.13 1v3.06l-2.33 1.16-.18 1.74 1.6 1.8 3 .92.56-2.69.94-1-.11 1.48 1.31 1.84h3l1.31 1.77 4.07.66 3.89 2.35h6.18l.35 3.32 4.37 3.35 1.82 2.11 2-1 1.5-.29.85.84 4.74-2.56.27-3.43 1.34-1 .67-5.28 2.33.45 1.28-.82-1.17-2.35 4.36-3.66 2.7-6 1.77-2.27-3.32-4.9 1.85-1.67-3-4.9-4.5-.32v-.05l-.19-.35-1-1.68 1.13-3 1.71-2.19-.51-2.77 1.4-1.37-2-3.33 1.5-1.76 1.68-.32 1.72.71 2.19-1.84.73 2.11 1 1.37 2.22-.58-.18-2.3.56-1.18.45-.93 1.9 1.59 2.63-2.59 1.1 1.53 3-.53 3.16-.34 1.33-2.32 4.74-.45 2.63 2.56 1-.95 1.85-.55-.67-2.3 2.25-.58 3.45-.74-.72-2.11.91-1 .91-3.37-1.85-2 1.05-3.33 2.33 1.38 4.12-.74-1.82-3.91-1.26-4.64 3.19-.13.83-2.14.05-.13L208 321l.16-2.38 3.57-.31 2.62-3.67-1.18-.4-.13-1.37 2.78-.34.22-1.71 1.23-.8 1.66-2.87-1.55-1.69v-1.61l1.23-1.05h.11l3.53-1.61 4.07 1.79 3.35 4.73 2.14-.29 2.65-2.62.94 1.64 2-2 2.31.61.1.79 2.68-1.85-.75-1.82-.91-.92 1.13-1.37h1.42l.88-2.77.72-1.4-.51-3 2.07-2.83 3.1-1.87.16-4.35 1.07.61 1.74 1.87h1.91l1.2-1.37-.86-2 .81-2.93-.54-2.93-1-1.13v-2.17l1.53-2.48-.38-2.48-.21-.23-3.62-3.59-.27-1.22 3-1.71 2-1.05.48-2.33 2.06-1.53-.69-3.29-1.33-1.7-.32-5-1.91-4.46-1.87-.66-1.47-2.56-1.21 1.51-.91-1.14v-2l-2.14-3-5.62.66-3.16-.79-8.6-1-1 2.64-2.79-.13-.66-.37-2 .18-1.61-1.08-2.6 3-.37.42-.14.16-.21.24-2.65-2.62-1.61 1.56-3-.21.37-2.8-1.87-1-1.07-3.55-2.76-.37-1.6-1.58-3.06-2.37.62-1.82v-3.33l-3-2.95-.32-2.32-2.89-3-1-4-1.23-.53-1.45-1.95-1.69 1 .33 1.74-4.05.95h-4.74l.14-1.74v-3.32l-4-1.16v-2l-3.24-.66-.67-2.66Zm-42.5 61.22.16 2.4.3.56h-1.69l-.24-1Z"
     class="cls-1"
     transform="translate(-16.43 -10.12)">
    <title
       id="title9">Nouvelle-Aquitaine</title>
  </path>
  <path
     id="polygon398"
     d="m229.25 99.78-1.61 2-1 3.72-1 1.63-.11.21-4.66 1.32-.83 1 .91 1.4v1.45l1.24.26-.59.61.13 1.29.3-.21 1.44 1.43.51 2 1.29 1.26-.62 1.66v1.82l1.13 1.24-1.15 2 1.25 3 2.31 1.61.35 1.9 2 .32.49 3.51 1.6 2 2.81.53.62.1.3 2 .34.55.38 4.62 5.7-.5 2.06-1.9 1.74 1.4 4.45.31 1 1.53.62.9 1.93 1 .16 2.51-2.89 1.74 1.9 1.66 1.93-1.21 4.53.16 1.79-.34.48-1.3 1.47.13.35 1.48 4.47-2.48 3.75-4.35-1.36-1.5 1.07-2.27 2.86-1.4 6.57.32 1.39-1.06.35.34.42-3.27.67-3.24 1.18-1.51.16-1.89 2.33-1v-1.77l-2.57.16-.4-.87.83-1.45-.72-2.69-1.29-.79.32-2 1.37-.87-.19-1 .67-.81-3.08-.64-.86-2-1.55-.53-4.39-4.16-.51-3.67-2.06-1.48-1.21.61-1.52 1.25-1.63-.5-2.84 1.16-2.41-1.37-1.12 1.39-1.29.14-1-.77-1.82-1-2 1.29-.29-.29-.75-.71-3.72-2.19-3.65-1.88-1.9.85-1.87.47-1.26-.95-2.84-1.71-2.25 1.69-3.08.34-4.39-.34-.94-1.48-.8-1.87Z"
     class="cls-2"
     style="fill:#ff4e00;fill-opacity:1"
     transform="translate(-16.43 -10.12)">
    <title
       id="title1">Île-de-France</title>
  </path>
  <path
     id="polygon400"
     d="m255.2 10.78-5.55 2.56-8.32 1.31-.3.06H241l-.48.08-8.89 1.66L224 22.2v22.71l-.05.53-.43 5.33 3.69 3.29v1.14l-4.31-2.53-5.81 7 1.82.77 1.74-.16.75 1.5 7.37 7.1.48 2.87 1.61 2.9-.46.56-1.1 1.29-.83 2.06h1.34l-.56 1.34-.67 3.41 1 1.66v3h1.5l-1.63 3-.54 1.64 1.54 1.39.46 3.72.72 1.13-.75.19-1.74-1.04-.43 3.21.41-.5.48 1.11 1.1 1.77 4.71.34 3.24-.34 2.09-1.58 2.51 1.53 1.45 1.08 2.17-.56 1.69-.76 3.44 1.8 3.65 2.12 1.28 1.29 2.06-1.35 1.5.87 1.1.87 1.72-.18.93-1.21 2.25 1.26 2.89-1.19 1.72.53 1.71-1.37.89-.45h.05l.27.19.21.13 1.1.79.51 3.61 4.55 4.33 1.47.53.89 2 3.08.63.48-.6.83-1.69 2.52-1.16 1.33-3.48 1.66-1.11-1.09-1.48h-2.09l-.22-.74 1.37-.6.86-1.27-1.56-1 .38-1.16 4-.32-.86-1.87-2.27-1.48v-4.11l3-2.19h3.75l-.35-1.74 1.69-.72 2.81 1.82 1.47-.39-.16-5.8.51-1.93.72-2.51-2.17-1.13.38-1 3.24-.68V78l2.49-1.29.72-2.19-.86-1.35.16-2.29 1.58-1.38-1.55-2.9.48-3.14h-3.75l-.1-1.26 3.34-2-.57-3.45-2.89-.75.59-.61v-2.28l2.6-1.87-.78-1.5-5.52-4.25-9.61.5-1 1.64h-.78l.16-5.62-2.77-3.3-2 .29-1.21-1.35-3.35 1.48-1.09-1.08-2.35-.29-.62-1.95-.16-6.73-1.52-.66-.19-1.08h-1l-.35-2-2.46.21-4.26 1.34-2 2.43h-1.77l-1.23-1.5-.44-1.77-1.8-2h-2.3l-.88-1.6v-2.7l1.18-1.82-.73-2.64Z"
     class="cls-2"
     style="fill:#ff4e00;fill-opacity:1"
     transform="translate(-16.43 -10.12)">
    <title
       id="title2">Hauts-de-France</title>
  </path>
  <path
     id="polygon410"
     d="m393.48 293.71-1.68.74-.35 2.42-2.57.29-.48-2.16-1.13-1.13-3.21.34-1.31 1.11-.7 3.64.61 1 3.46.34.67 2.09 1.28.63v3.19l-3-.13-1.34 1.45-3.8-.66-2.15 1.79-1.52-.65-2.47 1.89.86 1.51-1.12 1.11h-4.34v2.37l1.26.63-.38.85-2.7 1.08-3.62.34-1.1 3.38-.16 2.11 1.74 1.37-1.55 1.79-2.14-1.05-3-.21-.43 1.84 1.53 1.06-1.88 1.21.78 3.12 5.7 1.5 1 2.16 1.55.29-.53 5v.26l-.64-.73-1.63-1.4-1 2.77-1.36 1.18H359.77l-1.13-.08-2.38-1.74-.7-2.21-4.84-.35-3.32-.31-.3-1.69 1.13-2.43-.4-.29-2.07 1.74-3.1-.31-.54-.9 2.36-3.17-2.57-2.4-2.6.21-1.93 3 .51 3.25 2.73.32-.32.87-2.14.15-2.36 2.35-.4-.53.48-3.29-1.15-1.35-4.82.71-1 2.09.64.34 2.76 4.54v3.77l5 4.88v1.87l-2.31 1.24-4.34 2.43-1.2 8.73-4.91-.66-1.52 4 1.1 1.51-5.28 3.27-1.69 3.82 5.68.27 6.94.5.83.82h-2l-1.9 3.21 7.55 1.56 6.27-1.08-3.19-3 1.66-1.37 3 1.24 1.5 3.19 9.78.16 2.3-.92.35 1.08-3 2.61 4 .16-.53 1.29-1.4 1.55h8.7l3.91 1.27.3.39.53.74 3 1.29.83 3.35 2.12.37 1.77-1.21 2.92-1.77 4.84.48-.1.92-1.58.76.1.48 4.66.21-1.36-1.4-.32-1.9 1.92-1.32 2.41.77.94.32.94 1.1 1.47-1 .32-2.19 1.18-1h3.5l1-1.48 2.23.66 2.91-1.24v-4.75l-2.78.14 1.85-1.14 1.39-1.87.37-2.56 4.77-.66 2.57-2.82.16-.16.19-.21v-.05l.16-3.56 3.21.63 1.18-1.5 1.82.37.16-5.2 3.72-.29 3.32-3h3.14l.18-1.93 3.11-1.84-1.66-3.84 2.49-2.11-.48-2.4 3.61-1.13 1-3.8-.5-2.53-.86-1.53-.72-2.35-2.71.21-7.9 2.8h-2.38l-4.26-3.41-4.48-1.2h-2.33v-2.87L408 330v-2.93l2.71-.37-1.77-1.53-1.66-.5-.75-1.93.61-1.34 3.06-3.22-.49-2.32.27-.26.06-.06.4-.42 1.12-1.21 2 .18v-1.92l-2.4-1.17-.51-4.8-2.06-.74-2.33.34-4.15-2.06-.7-5-2.54-.81-.81-1.59-1.15-2.5-3.43-.16Z"
     class="cls-1"
     transform="translate(-16.43 -10.12)">
    <title
       id="title11">Provence-Alpes-Côte d'Azur</title>
  </path>
  <path
     id="path416"
     d="M419.75 387.14 417 389l.37 1.79 1.23 1.56-1.47 1.1.35.69.35.69-1 1.08v1.69l1.69 1.5v2.14l-1 2-.86.37-.51-.66-.8-1.11-2.35.16-.51-.35h-2.19l-1.95 1.8-.67 2.71-4.26.8-3.42 2.89-.61 1.72-1.37-.14-1.15-1.34-.53 3.22-1.21.47-.37 2.85.45 1.06-1.74 1.24-.46 1.21h-1.41v2.21l1.79 1.24 2.76 1.59.13 1-1.44.45-2.9.53v1.45l1 1 .19 3.38 3.86 1.21 1.23.29 1 1.61-.69.95-1.34.48-1.05 1.87-1.07 1.24.54 3.3 2.65-.16.72.52 2.36-1.13.4.4-1.19 2.43 1.1 1.08-1.82 1.34-1.5 3.3 4 .92 4.68.43-1.74 2a2.45 2.45 0 0 0-1.5-.1.17.17 0 0 0-.1.05l-.08.08a.2.2 0 0 0-.08.08l-.06.1v.06a.25.25 0 0 0 0 .1v.08a8.91 8.91 0 0 1-1.13 2.69l-.11.16 1.8 1.93 3.08 1.87 5.73 1.5 1.63.66 1.29.53-1.1 2 2.94-.18.51 1.13h3.06l.77-3.58-1.5-.29 2.23-2.3-.94-.92.13-1.24 3-1.64.21-2.21-2.38-.19-1 .85v-.85l2.6-.16.88-2.11.7-5.85v-.05l-.51-2.46-.06-2.24-.1-4.93 4-5.59v-9.32l-.08-.13-1.58-3.08-.51-9.9-1.2-1.87-2.14-1.63-.35-6 1-2.82-1.36-4.51-.83-3.61-.75-1.11-1.72-.95Z"
     style="fill:#003839"
     transform="translate(-16.43 -10.12)">
    <title
       id="title13">Corse</title>
  </path>
  <path
     id="polygon418"
     d="m217.44 59.26-1.18 1.42-7.15 5.41-12.69 3.14-8.41 3-6.86 3.64-4.09 6-.91 4.85 3.48 2.58 3.61.77-3.34.58-6.43 3.67-7.07 2.74-5.6-3.06-13.73-2-3.24-1.66-4.77 1.21-1.55.37-.17-3.72-4.31-5 1.21-3h2l-1.82-5-7.42-.38-3.77 2.59-4.23-2.72-6.51-1.9-.83 2 3.59 2.85v3.46l-1.42 1.74 1 1 .38.27-.33 3.06 1.21 2.69 3.86 4.3.8 3.72.83 1.18v5.86l2 4v4.48l-2.2 4.33 2.44 6.17 3.64.79.27 1.32-1.61.71h-3.43l.59 2.4 1 3.22 2.92 2.53 1.63.4 1.37-1.82 1.5-.19 1.71-2 1.55 1.22h2l1.15.55v.4l3.16.36 1.66-1.26 2.28.9.16.29 1 1.58 2.06 1.51 2.52-1.66 1.66 1.16 4.61-2.69 4.5.66 2.65-1.06.67-1.61 1.39-.13 1.37 1.19.67 3.66 2.19.85.86 3 3.13.16 4.53-4.12 4.31-.15 1.23 1.63.83 6 2.89 1 1.74 2.54h3.4l.14.92h.51l.13-1.39h.32l2.33 3.42 2.22.37v-4.3l-1.15-1.53-.29-1.08 2.3-1.37 2.57-.5 1.8-2.11-.35-6.3-3.54-3-.16-2.85-.4-.26 2.09-2h2.25l6-3.09 1.88.77h4.41l1.13-1.31v-2.43l3.35-1.64v-2.66l.93-.77-.08-.73 1.1-1.09-1.77-.36v-1.19l-.8-1.24.51-.61 4.71-1.32 1.23-2.08 1-3.64 1.26-1.53.21-1.64 1.26.69 1.64-.45-1-1.56-.48-3.82-1.45-1.29.4-1.27 1.28-2 .88-1.51h-1.87v-2.67l-1-1.61.64-3.14.8-2h-1.34l.51-1.27 1.74-2.08-1.71-3.09-.51-3-7.39-7.12-.82-1.75-2 .16-1.55-.66Z"
     class="cls-1"
     transform="translate(-16.43 -10.12)">
    <title
       id="title4">Normandie</title>
  </path>
  <path
     id="polygon424"
     d="m325.09 54.56-1.74 2.54-1.58 1.55v3.43l-1.87 1.24-3.65 1.14-1.87.76-2.3-1.77h-3.51l-.48 3.22 1.44 2.69-1.44 1.27-.16 2.66.8 1.27-.59 1.77-2.57 1.34v2.09l-3.13.66-.62 1.66 2.2 1.16-.62 2.11-.51 2 .11 4.41.05 1-.88.24-2.84-1.82-2.33 1 .32 1.53H294l-3.35 2.45v4.69l2.38 1.53.49 1.09-3.67.29-.59 1.84 1.44 1-.48.74-1.63.71.43 1.53h2.25l.61.85-1.34.89-1.34 3.43-2.49 1.16-.88 1.82-.91 1.11.19.92-1.29.82-.4 2.56 1.39.87.62 2.27-.83 1.5.64 1.43 2.38-.13v.87l-2.33 1-.16 2.06-1.13 1.37-.72 3.43-.41 2.91 1.24 1h2l4.2 4.3-.53 4.48 3.29 2.48 1.66-1.13 2.46 2.9.33 3 1.87 2.45.88 2 6.94.34 3.19-1.58.91 1.72 1.5.21.88-1.85 5.36-.16 2.38-1.24.35-2.06h4.55l1.15.64 1.52.78 2.94 3.09 3.72 4.95-2.22 2.35 1.64 1.11.18 2.9 2.76-.16.67 1.32 2.22.16 1.37-.74 2.52 3.09.42 1 4-.87.67-1.61.27.06v-1.8l2.06-.89 2.68 1 2.57-1h1.66l.53-3.46 1.1-1.26L359 168l-.14-1.55 2.3-.5.14-1.27h2.38v-2.22l1.93-.68-.51-1.37.16-.11h.06l.4-.27 1.07-.63-.64-1 .42-.23 1.16 1.31 1.95-1.34.48-1.56 2.89-.47.67.53-.16 1.82 2.36 1.76 1.53-.16 1.47-1.16h3.29l2.52 2.8h1l1.5-.92.18-1 1.1-.56 1.34.9 1.47 1.64 5.33 2.76.75 1.43 2.73.16 2.92 2.21.43 1-.16 1.87-.83 1.53.38 2.3 2.38-.34.43 1.61.88 3.72 1.88-.29-.33 1.58 1.37 1.16 6.37-.16 3.35-2.61.16-3.67 1.77-2.24-2.3-2.61-1.08-2.45L419 167v-4.17l.83-1.93v-3.32l1.55-2.21-1.68-2.37-.13-4.27V147.88l4.34-8.36v-.08l-.53-4.8 2-6.43.51-5.49 4.33-3.14v-2l1.56-2h1.34l1.66-1.63-.35-2.85 1.44-3.78 2.71-.6-2.81-2.19-4.21-.48-3.77-1.87-2.44 1.45-1.29-1.4h-1.92l-2.65.72-.49.05-.24.08h-.05l-1-1.48-3.37-2-1.23-1.9-4.26.37-2.36 2.14-5.49.15-1.58-1.08a6.34 6.34 0 0 0-1.74-2.08.87.87 0 0 0-.1-.08s-.08 0-.11 0h-.16v.23l-.08-.23a7.06 7.06 0 0 1-2.36-1l-.1-.06-2.63 1.09-.16 1.92-2.46.29-1.64-3.06-.98-.3v-2.29l-2.36-1-.16-3.91-1.77-1.68-3.56-1.72h-1.85l-.51.35h-1.52l-2.33-2-2.71.16-2.13 1.7-.48.77H365l-1-1h-2.68l-3-3.29h-4.07l-2 1.82-2.87.16-1 1h-.7l-.64-3-1.44-1.42-.67-.11-.54-.08-.86-.13-.67-3.22-1.49-1.11-4.6-.5-.77-2.08-1.58-1-5.27-.66-.3-3.49.67-.65v-1.74l-2.62-1.63.43-1.61.75-1.82-1.1-.93 1.71-1.53v-3.22l-.83-.58Z"
     class="cls-1"
     transform="translate(-16.43 -10.12)">
    <title
       id="title3">Grand Est</title>
  </path>
  <path
     id="polygon432"
     d="m222.23 300.57-3.61 1.66-.89.13.22.32-1.07.89v2l1.44 1.58-1.39 2.4-1.39.9-.16 1.55-2.89.34.18 2.19.86.29-2.09 2.93-3.75.32-.18 2.61-1.45 1.4-.83 2.11-3.51.16 1.45 5.27 1.47 3.17.08.18-3.29.58-2.71-1.55-1.31 4.22 1.85 2-.78 3-1.07 1.22.64 1.84-2.92.61-2.76.71.67 2.32-.88.24-.43.13h-.13l-.75.69-2.44-2.35-5.25.5-1.34 2.33-2.91.31-2.68.45-1.23-1.75-2.73 2.69-2.06-1.71-1.34 2.82.13 2-1.45.4-.72-1-.94-2.82-2.54 2.15-1.58-.64-2 .37-1.82 2.19 2 3.3-1.29 1.27.51 2.82-1.58 2-1.26 3.32 1.47 2.54 4.1.29.43.05 2.65 4.32-1.85 1.67 3.38 5-1.58 2-2.65 5.9-4.64 3.88 1.15 2.3-.72.47-2.68-.53-.69 5.6-1.37 1-.29 4 .69-.42 2.71 1.58 3.26 2.43.33 1.95 2.81 2.27h2.3l5.44-2.27 2.25 2.56 3.45.89 1.18-1.92 1.28.55 3.08.21 7.31.5.35-8.09 2 .29 3.08 1.79 1.23.69 5.3 1h2.07l2.84 3.64 7.17-.34L216 418l2.65-1.06 7.1 1 .48 2.61.08.5.27 1.56 2.57 2.37 4.93 1.35.16 2.87 2.87 2.48 2.22-.4 2.86-3.45 3.35-.63 5.41 1.79 4.85 4.09 1.42-1.77h1l1.23.87 1.29-.61.16-2.29 4.93-1.13 1.66-2.14 2.41-.79h3.34l2.2 2.29 3.05.21v-3l-1.49-1.97-2.27-1-.33-13.75-.16-5.12.21-5.72-2.17.16-1.5-2.19 1.1-1.74 2.76 2.56 2.7-2.14 1.77-1.69.19-1.61.13-.95 6-1.82.65-1.42 4.66-.16 1.52-1.87 9-7.1 5.62-3.9 1.58.1 3 .22v3.32l4.07-.19 2.25.11 1.52-3.51 5.6-3.37-1.26-1.75 1.31-3.4 5 .69 1.21-9 6.64-3.72v-2.37l-5-4.88v-3.74l-2.94-4.8-6.3-3.48-.48 2.74-1.95.19-.73-2.59-2.78.53-.43 3.14-1.55-.55-4.15-2.67-1.66.85v-4.41l-2.83-1.64-.72-.42.48-3.46-2.86-3.06-1.18-6-4.42-5.59-3 .71-.65-2.24h-2.11l-.32 2-4 1.22-3-7.63-5 1.8-1.22 2.81-3.05-2-2.44 7.57-2.25 5.09-1.15-1.42-.51-4.83h-1.63l-.75-4.69-3.3.47-.42-2.8-.67-1.05-5.06 4.25v3.82h-1.16l-.48 3.8-1.15.45-.91 2h-4.9l-.46-.69H246l-1.42 2.3h-.24l-1.16-.16.91-2.71-2.11-.93 2.11-4.85-2.91-2.14-1-6.12-2.89-.76-1.77 1.71-.93-1.63-3 2.95-1.66.21-3.24-4.56Z"
     class="cls-1"
     transform="translate(-16.43 -10.12)">
    <title
       id="title12">Occitanie</title>
  </path>
  <path
     id="path436"
     d="m268.53 216.71-2.33 3-1.33.16-1.37 1.4-1.69-1.82-4.76 4.72V227l.83.68.13 1.06-2.12 1.63-2.11-.63-4.34.87-2.22 2.51-1.05 2.21.46-.1 1.87 2.61v2l1.4 1.79 1.15-1.42 1.2 2.05 1.82.66 1.8 4.15.08 1.29.24 3.83 1.36 1.63.62 2.93-1.95 1.45-.49 2.3-1.74.92-3.34 1.9.37 1.74 3.86 3.8.32 2.14-1.53 2.45v2.48l1.05 1.19.48 2.66-.38 1.32-.48 1.66.83 1.9-.86 1h-1.42l-1.6-1.74-1.93-1.09-.19 4.91-2.89 1.74-2.28 3.09.54 3-.67 1.27-.78 2.48h-1.29l-1.55 1.9 1.15 1.13.57 1.4-2.15 1.48.94 5.77 2.76 2-2.22 5 2.17.95-1 2.84 2.36.32 1.42-2.35h2.09l.45.69h5.55l1-2.14 1.21-.5.48-3.64h1.2v-4.09l4.45-3.72.27.43.48 3.21 3.35-.47.69 4.64h1.64l.45 4.43v.08l1.8 2.19 2.59-5.88 2.25-6.94 3 2 1.42-3.14 4.24-1.5.1-.06 3 7.6 4.71-1.42.32-1.93h1.26l.7 2.35 3.18-.77 3.65 4.59.32.4.16.18 1.15 6v.08l2.81 3-.51 3.53 3.59 2.14v4.9l2.14-1.08 4 2.53 2.2.82.45-3.43 2-.37.69 2.56 2.79-.29.43-2.4 5.35 3 .94-1.9 2.38-.34 1.88-.26.83.95-.49 3.29.92 1.14 2.62-2.61 2.28-.19.64-1.77-3-.34-.43-2.69 1.68-2.62 2.12-.16 2.09 1.93-2.3 3.08.83 1.4 3.58.37 1.34-1.13-.69 1.5.4 2.24 3.69.34 4.53.32.64 2.06 2.63 1.92 2.35.16 1.64-1.42.75-2.19 1 .89 1.4 1.61.75-6.93-1.77-.35-1-2.13L358 332l-.62-2.48 2.2-1.42-1.88-1.3.27-1.1 2.41.15 2.46 1.22 2.15-2.48L363 323l.13-1.79 1-3 3.34-.32 3-1.19.27-.58v-.16l.17-.34.19-.39-1.42-.72V313h4l1.56-1.53-.81-1.45 1.88-1.45 1.52.66 2.2-1.85 3.86.68 1.34-1.5 3.34.16v-4l-1.39-.68-.67-2.19-3.56-.34-.38-.64.62-3.27 1-.87 2.84-.32.86.85.54 2.48 3.42-.4.35-2.53 1.31-.58 3.62.18-.14-.26 4.64-1.82 1.79 1.13h2.14l.19-2.08 2-1.08.85-1 4.45-1.69.56-3-.83-1.27 2.44-4.09-2.36-.87-.64-2.29-4.5-2.62c0-.94.22-5-.19-5.93l.32-.27h-.8c-.55.14-2.46.28-3 .32l-2.39-2.64.08-2.85.09-2.47 5.65-2.33.72-1.76-.35-3.8-3.88-4-1 .55v-3.69l-3.21-1.51.04-1.09 1.82-1.95v-2.51l-3-3.14-.16-2.26h-6l-3.88.66-3.58 2.8-.91-1.37-2.17.18-1.74 3.77v.08l.22 1.64 1.63 1.32-3.1 2-2.09 1.93h-5.17v-2.75l1.85-1.05 3.13-.35.24-2-.91-.61 2.44-3-.43-1.19-3.13-1.66-7 7.62h-4.5v-1.89l-3-1.46-3.27 3.51-2.14.29v-2.19l-2.25-1-3.35-4.64-3-1.14-1-2.16-1.93-.39-1.71 1.18-1.18.32-1.82-1.5-2.09.21-1.26 2.32-3.16 12.13-.45 1-.48 1.13-.81-.1-.61-3.17-.94-2.82-2.12.19-1.36 1.34-1-1.32-1.56 1.37-1.95-1.24h-1.82l-.8.61-.41 2.14-.56 3h-1.74l-1.23 1.21-.91-.89-5.44-.82h-.08l-2 1.19h-1.07l-.3-1.13-2.49-.5-.16-2.62-.46-.15 3.3-2.48.16-6.62-1.31-1.82h-2.68l-1-1.32h-2.84l-.7-.85v-2.4l-3.4-6.36-2-1.39-3.27 4.43-1 .24-.48-2-1.85-.82-.7 1.4h-2.08l-.37-1.61-2 1.14-1.64.89-1.87-2-2.81-1.32-.17-2.19-4.23-.37Z"
     class="cls-1"
     transform="translate(-16.43 -10.12)">
    <title
       id="title10">Auvergne-Rhône-Alpes</title>
  </path>
  <path
     id="polygon452"
     d="m222 113.76-1.28 1v2.59l-3.36 1.65v2.56l-.86 1h-4l-2.07-.84-6.1 3.14H202l-2.73 2.56.72.47.16 2.8 3.54 2.95.32 5.88-1.53 1.85-2.43.48-2.76 1.61.37 1.5 1.16 1.5v4.06l.5.06 2.07 1.45-.57.68-.18.24-.14.19-1 1.18-1.42 2.48 1.71 1.56-.16 3.3-.63 2.14h-1.74v3.29l-2.23 2.85-2.51 1-1.32 1.66.41 1 .13.32.08.21.16.32-4.66 1.26-1.07 1.53-2.41-1.55 1.12 3.64h-1.42l-3.54-2.48-1.87 3.72.88 1.06v.79l-1.69 2.16.19 3.62-2.62 3.06-2 7.17h.35l.67 2.61 3.13.64v2l4 1.16v2.93l-.19 2.24h5.36l4.6-1-.37-1.9 1-.61 1.23 1.69 1.12.48 1 3.9 2.86 2.95.32 2.33 2.73 2.66.27.26v3l-.72 2.11 3.32 2.56 1.71 1.69 2.6.34 1 3.4 1.74.95-.27 2.11-1.15.21v.51l.51.1 4.29.25 1.42-1.37 2.68 2.63 3.37-3.82 1.39.92 2-.18.62.31 3.32.19 1-2.61 8.14 1 3.24.82 1.18-.13h.51l3.88-.48.86-1.79 2.09-2.35 4-.82 2.28.69 2.54-2-.19-1.56-.83-.63v-2.43l4.26-4.19 1.74 1.8 1.61-1.64 1.36-.15 2.3-2.93 3.51.29v.68l.51.06 1.31-4.14-.83-1.51.13-2.06.54-4.4-1.85-1.82.35-3.9-1.68-3.48-.16-2.37-3.06-2.32-.43-1.8 1.48-2.11v-3.29l-1.59-1.87-.32-.37-.11-.1-.14-1.38 3.41-1-.59-2.06-.51-2.64-2.17-3-.4-1.46h3.08l2.51-1.76.35-2.69-1.39-1.56 4.23-3.51v-3.22l-2.22-2.32-.83-2.63-3.22-3-4 2.24-.29-1.16-2.23-.19-.51 1.38-1.47.26-4.6-.16-1.77 1.09-1.13-1 2.54-1.71-.18-3.09-2.09-1-1.72-2.53-4.55-.31-2-1.59-2.25 2.09-4.34.37-.46.05h-.24l-.35-4.25-.35-.5-.34-2.27-3.59-.69-1.42-1.69-.51-3.74-2-.32-.32-1.74-2.36-1.66-1.12-2.64 1.23-2-1.26-1.37v-1.5l.72-1.93-1.41-1.4-.51-2-1.8-1.82Z"
     class="cls-1"
     transform="translate(-16.43 -10.12)">
    <title
       id="title7">Centre-Val de Loire</title>
  </path>
  <path
     id="polygon464"
     d="m283.07 140.16-1.58 1.19L275 141l-3.16 1.56-1.29 2.72 1.31 1.42-3.56 4.14 3.16 2.93.81 2.58 2.19 2.33v2.77l-4.46 3.72 1.58 1.77-.29 2.24-2.2 1.55h-3.59l.59 2.14 2.17 3 .51 2.61.45 1.59-1.68.47-1.64.47.19 2 2 2.29v3l-1.53 2.17.54 2.16 3 2.29.16 2.19 1.68 3.51-.34 4 1.84 1.79-.5 4.2-.17 2.21.81 1.45-1.26 4 .13 1.45 2.95 1.35 2.11 2.29 2-1.11 1.37-.81.32 1.34h2.87l.61-1.24 1.15.5.54 2.27 1.69-.39 3.1-4.17 1.39 1 .38.69 2.94 5.46v2.51l1 1.16h2.84l1 1.32h2.68l1 1.45-.16 6.22-3.45 2.44-.3.66.64-.08.3.08.16 2.67 2.54.5.32 1.21h1.61l2-1.16 5.17.79 1.15 1.14 1.44-1.43h2l1-5.38.51-.39h1.5L323 242l1.42-1.26 1 1.32 1.67-1.61 1.52-.13.78 2.4.69 3.48 1.56.21 1.1-2.53 3.13-12.14 1.12-2 1.61-.16 1.85 1.53 1.47-.37 1.66-1.13 1.45.29 1 2.11 1 .4h.08l1.9.74 3.35 4.62 2.09.92v2.45l2.92-.39 3.11-3.38 2.35 1.16v2.09H368l7.26-7.86-.43-.24.3-3.22 2.7-3.17-1.82-.71.13-.87 10.31-9.52.08-.08-.32-7.86 3.51-1.72 2.52-1.16 2.46-2.24.19-3.08 2.2-1.11 5.54-6.28-.81-1.9 1.64-.71 2.41-2.88-1.45-1.42-3.91.79-.05-.29 3.83-4.35.38-.42 2.38-.37-.88-3.78-.57-2.05-2.33.34-.26-1.64.77-1.42.19-2.14-.54-1.26-3.13-2.4-2.6-.16-.56-1.11-.08-.16-5.38-2.79-1.47-1.64-1.69-1.11-1.58.79-.19 1-1.18.74h-.64l-2.52-2.8h-3.71l-1.5 1.16-1.18.13-2-1.47.16-1.82-1-.82-3.43.55-.54 1.69-1.41 1-1.16-1.31-1.23.73.65 1-1.61 1 .48 1.29-1.77.63v2.06h-2.33l-.16 1.34-2.38.53.21 2.4 1.24.13-.59.66-.49 3.17h-1.28l-2.52 1-2.68-1-2.57 1.11V175l-.72 1.75-3.32.73-.27-.6-2.87-3.54-1.6.9L339 174l-.67-1.34-2.6.15-.16-2.66-1.36-.9 2.11-2.24-4-5.3-3-3.14-2.84-1.57h-5.11l-.38 2.22-2 1.08-5.22.16-.13-.58-.27.58h-.13v.21l-.75 1.58-.86-.13-1-1.92-3.51 1.8-6.48-.32-.8-1.74-1.8-2.4-.32-3-2.89-3.38-1.71 1.19-2.76-2.09.51-4.43-4.5-4.64h-2l-1.26-1Z"
     class="cls-1"
     transform="translate(-16.43 -10.12)">
    <title
       id="title6">Bourgogne-Franche-Comté</title>
  </path>
  <text
     id="text1"
     style="fill:#fff;font-family:Montserrat-Bold,Montserrat;font-weight:700;font-size:32.1px"
     transform="matrix(1.02 0 0 1 259.19 283.59)">8683</text>
  <text
     id="text4"
     x="305.83035"
     y="126.82178"
     class="cls-5"
     dx="0"
     style="font-size:24px;letter-spacing:-2.00001px;stroke-width:1.00995"
     transform="scale(1.0099505 .99014754)">4153</text>
  <text
     id="text7"
     class="cls-5"
     transform="matrix(1.02 0 0 1 347.75 352.43)"><tspan
       id="tspan5"
       style="letter-spacing:0">4</tspan><tspan
       id="tspan6"
       x="10.86"
       y="0"
       style="letter-spacing:-.01em">5</tspan><tspan
       id="tspan7"
       x="20.07"
       y="0">79</tspan></text>
  <text
     id="text9"
     class="cls-5"
     transform="matrix(1.02 0 0 1 383.36 426.83)"><tspan
       id="tspan8"
       style="letter-spacing:0">4</tspan><tspan
       id="tspan9"
       x="10.82"
       y="0">9</tspan></text>
  <text
     id="text13"
     x="191.79849"
     y="181.15787"
     style="stroke-width:1.00995;font-size:15.05px;fill:#fff;font-family:Montserrat-Bold,Montserrat;font-weight:700"
     transform="scale(1.0099505 .99014754)"><tspan
       id="tspan10"
       class="cls-13"
       style="stroke-width:1.00995">3</tspan><tspan
       id="tspan11"
       x="200.72646"
       y="181.15787"
       style="stroke-width:1.00995;letter-spacing:0">2</tspan><tspan
       id="tspan12"
       x="209.69481"
       y="181.15787"
       class="cls-13"
       style="stroke-width:1.00995">5</tspan><tspan
       id="tspan13"
       x="218.66318"
       y="181.15787"
       style="stroke-width:1.00995">3</tspan></text>
  <text
     id="text15"
     class="cls-15"
     transform="matrix(1.02 0 0 1 33.68 148.95)"><tspan
       id="tspan14"
       style="letter-spacing:-.02em">7</tspan><tspan
       id="tspan15"
       x="14.03"
       y="0">004</tspan></text>
  <text
     id="text16"
     x="120.54887"
     y="274.19098"
     style="letter-spacing:-1.5px;stroke-width:1.00995;font-size:40.92px;fill:#fff;font-family:Montserrat-Bold,Montserrat;font-weight:700"
     transform="scale(1.0099505 .99014754)">9858</text>
  <text
     id="text17"
     style="font-size:33.87px;fill:#fff;font-family:Montserrat-Bold,Montserrat;font-weight:700"
     transform="matrix(1.02 0 0 1 189.15 362.68)">9606</text>
  <text
     id="text18"
     x="92.214348"
     y="185.7097"
     class="cls-15"
     style="letter-spacing:-2px;stroke-width:1.00995"
     transform="scale(1.0099505 .99014754)">6555</text>
  <text
     id="text20"
     x="140.96823"
     y="108.87782"
     style="stroke-width:1.00995;font-size:15.08px;fill:#fff;font-family:Montserrat-Bold,Montserrat;font-weight:700"
     transform="scale(1.0099505 .99014754)">3<tspan
   id="tspan19"
   x="149.97699"
   y="108.87782"
   style="stroke-width:1.00995;letter-spacing:0">6</tspan><tspan
   id="tspan20"
   x="159.62202"
   y="108.87782"
   style="stroke-width:1.00995">79</tspan></text>
  <text
     id="text21"
     class="cls-15"
     transform="matrix(1.02 0 0 1 216.18 63.96)">6680</text>
  <text
     id="text23"
     style="font-size:14.72px;fill:#fff;font-family:Montserrat-Bold,Montserrat;font-weight:700"
     transform="matrix(1.02 0 0 1 295.44 192.92)">2<tspan
   id="tspan21"
   x="8.69"
   y="0"
   style="letter-spacing:0">9</tspan><tspan
   id="tspan22"
   x="18.01"
   y="0"
   style="letter-spacing:-.02em">7</tspan><tspan
   id="tspan23"
   x="26.89"
   y="0">8</tspan></text>
  <text
     id="text27"
     x="209.8078"
     y="119.14745"
     style="stroke-width:1.00995;font-size:14.92px;fill:#fff;font-family:Montserrat-Bold,Montserrat;font-weight:700"
     transform="scale(1.0099505 .99014754)"><tspan
       id="tspan24"
       style="stroke-width:1.00995;letter-spacing:0">5</tspan><tspan
       id="tspan25"
       x="218.69536"
       y="119.14745"
       style="stroke-width:1.00995">2</tspan><tspan
       id="tspan26"
       x="231.84491"
       y="119.14745"
       style="stroke-width:1.00995;letter-spacing:-.01em">9</tspan><tspan
       id="tspan27"
       x="241.28795"
       y="119.14745"
       style="stroke-width:1.00995">30</tspan></text>
</svg>
